<svg xmlns="http://www.w3.org/2000/svg" viewBox="0 0 164.222 164.222">
  <defs>
    <style>
      .cls-1 {
        fill: #1dd3e4;
      }
    </style>
  </defs>
  <g id="Group_294" data-name="Group 294" transform="translate(4.982 4.982)">
    <path id="Path_168" data-name="Path 168" class="cls-1" d="M37.4,48.231l2.625-.955,1.79-4.176-3.7,3.222Z" transform="translate(11.808 12.909)"/>
    <path id="Path_169" data-name="Path 169" class="cls-1" d="M97.943,95.441c27.563-4.773,26.251-19.211,29.353-22.552a2.391,2.391,0,0,1,2.864-.6c1.551-7.159-.477-16.705-3.46-20.523a11.32,11.32,0,0,1,2.148.358c-1.671-4.415-5.25-10.142-13.6-16.347,1.313.358,5.25,1.193,7.279,2.386-1.79-3.46-7.279-11.336-13.125-12.29-1.313,3.7-5.25,5.131-5.25,5.131.716-5.369-3.818-12.767-12.171-17.063.835,5.727-2.506,10.739-2.506,10.739C89.59,12.632,75.391,11.2,75.391,11.2c1.671,3.341-.6,8.233-.6,8.233-5.131-13.006-30.546-8.233-37.825,0a5.573,5.573,0,0,0,.6,1.193c.835.835,2.267,1.551,6.2-.477a15.814,15.814,0,0,0-3.46,15.273c2.267,8.114-.477,17.063-8.472,19.569,0,0,2.028-3.46-1.313-4.3-5.608-1.313-12.887,6.8-3.341,14.915,0,0-9.188-2.625-8.472-9.665.716-7.517,7.279-8.949,11.813-11.813,7.04-4.415,4.654-13.483-2.983-12.052-8.353,1.671-9.188,8.711-8.591,14.557-10.5,1.909-13.841,28.279,1.432,33.41C30.168,83.39,40.31,74.8,40.907,74.56c-.477,1.193-1.193,7.517,2.506,10.62,0,0-3.58-.239-5.369-2.625a26.511,26.511,0,0,0-7.517,19.092c-1.909-.358-11.336-5.25-16.108-12.887,0,0,3.938,16.466,17.3,23.268,3.58,7.4,6.921,11.813,18.256,15.631A28.876,28.876,0,0,1,40.31,115.01s-6.563-14.08,1.313-25.3c-1.074,3.46-1.909,10.142.955,15.393C42.816,75.037,99.613,88.4,91.141,70.861c0,0,6.085-1.671,9.665,2.983,5.727-3.58,8.472-20.762-7.279-23.626-3.7-.716,3.222,7.159-2.267,8.353C84.34,60,74.436,65.014,80.164,70.145c0,0,4.057-2.267,3.222-6.443,0,0,3.58,4.773.477,8.711a4.845,4.845,0,0,1-6.2,1.671l-1.909-3.46s-3.341,3.818-2.625,5.131c.716,1.432,3.58,3.7,5.727,2.983,0,0-10.978,3.938-12.41-4.3a27.82,27.82,0,0,1,6.324-6.085s-3.938-.955-5.608-.239-4.773,1.909-4.773,1.909a14.623,14.623,0,0,0,3.938,9.188s-8.949-2.625-8.949-10.978l2.148-3.1c2.506-2.148,4.534-1.909,7.637-1.79l5.489-1.074,11.336-7.875s-5.966-6.443-13.364-4.3c0,0,3.222,5.489-1.074,9.068,0,0-1.074-7.159-7.637-4.534-6.443,2.506-8.949,9.307-7.995,12.29l-2.744.835s-2.386,2.267-.358,2.864c3.7,1.074,4.892,3.341,4.176,5.966a4.031,4.031,0,0,0-4.773-4.057c-3.818.358-6.2-.358-4.654-2.506-1.193-.239-1.671-.835-2.267-2.028a6.787,6.787,0,0,0,4.534-1.074,6.874,6.874,0,0,0,2.267-3.341l-1.671-1.79,2.864-.835,2.028-5.847-3.7,3.1L48.9,59.883l-2.744.835v.716l-1.074.835a4.949,4.949,0,0,0,2.983,2.386s-3.222.6-5.489-.716l-.119,1.551a8.057,8.057,0,0,1-1.909.955l-.239.358a5.114,5.114,0,0,0,3.341,3.1s-3.938.716-5.847-1.432l-.716.835s-5.25,2.386-5.25-1.193c0,0-2.148-2.267.835-5.012l7.04-6.443s-.716-2.506.239-3.938,5.012-7.875,5.012-7.875-2.267-6.8,1.551-11.336,9.546-7.04,4.415-12.767c-1.432-1.551-3.46-4.176-2.267-6.443,0,1.193,1.193,3.1,2.386,4.176,3.938,3.46,5.966,5.012,3.7,10.262-1.79,4.057-4.892,8.472-3.938,11.932l2.267-1.551s-.6-2.386,2.864-7.159c3.341-4.773,5.847-9.188,2.983-12.409s-3.222-4.534-1.79-6.8a5.175,5.175,0,0,0,1.909,4.773c2.506,2.148,7.4,5.727,2.506,14.319-4.3,7.517-2.028,6.324-.358,5.25,1.909-1.193,2.267-5.369,7.875-5.847,4.654-.477,13.841-2.625,14.677-9.068,0,0,3.341,6.443-5.25,11.932,0,0,12.648,1.551,16.705-8.114a9.977,9.977,0,0,1,1.074,9.665,34.144,34.144,0,0,1,25.654,13.364h-2.506c4.3,5.131,7.04,15.035,6.324,21.359,0,0-2.028-.716-3.7,3.222-8.83,23.387-52.74,16.228-64.315,31.024-9.307,11.813,4.176,34.961,34.961,23.149-14.677,1.432-23.864-2.744-27.921-12.41,9.426,10.142,24.938,8.233,28.876,6.682a10.171,10.171,0,0,1-4.415-8.353c0-9.188,9.426-10.023,18.614-10.739,16.944-1.313,19.688-6.324,22.433-18.376a31.406,31.406,0,0,1-17.54,11.455C98.062,99.976,72.527,100.93,82.908,120.5c-7.517.119-18.853-5.489-14.2-13.722C71.692,100.692,82.908,98.067,97.943,95.441ZM31.122,72.412c2.983,2.983,5.847-.358,5.847-.358-.716,2.625-4.654,3.818-7.04,1.909-2.148-1.671-5.369-1.909-5.608-.119-.358,2.983,3.46,3.46,3.46,3.46C10.957,78.856,14.3,58.69,14.3,58.69c.6,5.131,2.267,9.426,6.682,9.784C25.991,68.833,28.616,69.907,31.122,72.412Z" transform="translate(6.511 6.745)"/>
    <path id="Path_170" data-name="Path 170" class="cls-1" d="M82.111,0a82.111,82.111,0,1,0,82.111,82.111A82.074,82.074,0,0,0,82.111,0Zm0,156.389A74.921,74.921,0,0,1,43.216,145.45a57.644,57.644,0,0,1-9.048-6.617,74.268,74.268,0,1,1,47.943,17.557Z" transform="translate(-4.982 -4.982)"/>
  </g>
</svg>
